<svg width="83" height="23" viewBox="0 0 83 23" fill="none" xmlns="http://www.w3.org/2000/svg">
<path d="M4.84676 22.6671V9.39995L15.3954 22.6671H19.5716V1.21053H14.6943V14.4474L4.1773 1.21053H0V22.6682H4.84676V22.6671ZM29.2553 23C31.2976 23 32.7916 21.9732 33.402 21.1561V22.6671H38.0053V7.55606H33.402V9.06706C32.7916 8.25103 31.2976 7.22317 29.2553 7.22317C25.2615 7.22317 22.1828 10.8202 22.1828 15.1121C22.1828 19.403 25.2626 23 29.2553 23ZM30.2928 18.8594C28.2189 18.8594 26.8166 17.2878 26.8166 15.1121C26.8166 12.9353 28.2189 11.3638 30.2917 11.3638C32.3645 11.3638 33.7679 12.9353 33.7679 15.1121C33.7679 17.2878 32.3645 18.8594 30.2917 18.8594H30.2928ZM50.2794 23C54.2733 23 57.353 19.403 57.353 15.1121C57.353 10.8202 54.2733 7.22317 50.2794 7.22317C48.2372 7.22317 46.7432 8.25103 46.1338 9.06706V0H41.5306V22.6671H46.1338V21.1561C46.7432 21.9721 48.2372 23 50.2794 23ZM49.243 18.8594C47.1702 18.8594 45.7679 17.2878 45.7679 15.1121C45.7679 12.9353 47.1702 11.3638 49.243 11.3638C51.3158 11.3638 52.7192 12.9353 52.7192 15.1121C52.7192 17.2878 51.3158 18.8594 49.243 18.8594ZM64.5675 22.6671V0H59.9631V22.6671H64.5675ZM74.2511 23C76.2934 23 77.7874 21.9732 78.3968 21.1561V22.6671H83V7.55606H78.3968V9.06706C77.7874 8.25103 76.2934 7.22317 74.2511 7.22317C70.2573 7.22317 67.1776 10.8202 67.1776 15.1121C67.1776 19.403 70.2573 23 74.2511 23ZM75.2876 18.8594C73.2136 18.8594 71.8114 17.2878 71.8114 15.1121C71.8114 12.9353 73.2136 11.3638 75.2876 11.3638C77.3604 11.3638 78.7626 12.9353 78.7626 15.1121C78.7626 17.2878 77.3604 18.8594 75.2876 18.8594Z" fill="#040062"/>
</svg>
